<?xml version="1.0" encoding="UTF-8"?>
<svg id="Layer_1" xmlns="http://www.w3.org/2000/svg" version="1.1" viewBox="0 0 270 162">
  <!-- Generator: Adobe Illustrator 29.2.1, SVG Export Plug-In . SVG Version: 2.1.0 Build 116)  -->
  <defs>
    <style>
      .st0, .st1 {
        fill: #8dc63f;
      }

      .st1, .st2, .st3, .st4 {
        fill-rule: evenodd;
      }

      .st5, .st2 {
        fill: #231f20;
      }

      .st3, .st6 {
        fill: #939598;
      }

      .st4 {
        fill: #255654;
      }
    </style>
  </defs>
  <g>
    <polygon class="st3" points="69.7 136.74 71.03 136.74 71.03 128.88 73.57 136.74 74.89 136.74 77.43 128.93 77.43 136.74 78.83 136.74 78.83 127.76 76.38 127.76 74.33 134.85 72.26 127.76 69.7 127.76 69.7 136.74"/>
    <path class="st3" d="M194,133.85v.46c.03,1.78,1.04,2.62,3.19,2.62s3.11-.99,3.11-2.38c0-1.14-.44-1.88-2.16-2.65l-.79-.35c-1.31-.59-1.61-1.18-1.61-1.67,0-.75.62-1.28,1.49-1.28s1.53.48,1.43,1.73h1.53c.13-1.8-1.02-2.73-2.83-2.73-2.08,0-3.11.98-3.11,2.29,0,1.38.92,2,2.09,2.55l1.01.47c1.29.6,1.49,1.08,1.49,1.63,0,.89-.65,1.41-1.63,1.41-1.65,0-1.72-1.09-1.69-2.11h-1.52Z"/>
    <polygon class="st3" points="187.51 136.74 192.61 136.74 192.61 135.7 189.01 135.7 189.01 132.72 192.25 132.72 192.25 131.66 189 131.66 189 128.81 192.43 128.81 192.43 127.76 187.51 127.76 187.51 136.74"/>
    <path class="st3" d="M184.49,133.88v.67c0,.91-.6,1.35-1.42,1.35-.52,0-.9-.18-1.13-.46-.14-.17-.29-.37-.29-1.25v-4.1c0-.76.17-.98.41-1.17.23-.19.58-.33,1.04-.33.8,0,1.38.43,1.38,1.33v.38h1.51v-.27c0-1.6-1.03-2.47-2.89-2.47-1.45,0-2.3.53-2.68,1.23-.12.22-.26.59-.26,1.45v3.85c0,1.4.28,1.77.68,2.12.43.38,1.18.7,2.23.7.86,0,1.47-.19,1.9-.46.65-.39,1.03-.94,1.03-1.96v-.63h-1.5Z"/>
    <rect class="st6" x="177.05" y="127.76" width="1.56" height="8.99"/>
    <polygon class="st3" points="171.47 136.74 173.42 136.74 175.99 127.76 174.55 127.76 172.51 135.49 170.49 127.76 168.88 127.76 171.47 136.74"/>
    <path class="st3" d="M167.59,135.15l-.1-.97c-.12-1.19-.24-1.3-.32-1.41-.18-.24-.55-.48-1.31-.61.85-.1,1.41-.48,1.68-1.03.08-.15.2-.6.2-1.09,0-.93-.37-1.5-.77-1.8-.33-.25-.87-.48-2.04-.48h-3.28v8.99h1.52v-4.03h1.23c1.41,0,1.46.77,1.54,1.67l.09,1.05c.07.84.13,1.03.24,1.31h1.66c-.15-.33-.25-.57-.35-1.59ZM164.58,131.68h-1.42v-2.88h1.33c1.17,0,1.72.42,1.72,1.51,0,.86-.58,1.37-1.64,1.37Z"/>
    <polygon class="st3" points="154.99 136.74 160.09 136.74 160.09 135.7 156.49 135.7 156.49 132.72 159.73 132.72 159.73 131.66 156.49 131.66 156.49 128.81 159.92 128.81 159.92 127.76 154.99 127.76 154.99 136.74"/>
    <path class="st3" d="M147.19,133.85v.46c.03,1.78,1.04,2.62,3.19,2.62s3.11-.99,3.11-2.38c0-1.14-.44-1.88-2.16-2.65l-.79-.35c-1.31-.59-1.61-1.18-1.61-1.67,0-.75.62-1.28,1.48-1.28s1.53.48,1.44,1.73h1.53c.12-1.8-1.03-2.73-2.83-2.73-2.08,0-3.1.98-3.1,2.29,0,1.38.92,2,2.08,2.55l1.01.47c1.29.6,1.49,1.08,1.49,1.63,0,.89-.65,1.41-1.63,1.41-1.64,0-1.72-1.09-1.7-2.11h-1.52Z"/>
    <polygon class="st3" points="136.89 136.74 141.75 136.74 141.75 135.7 138.46 135.7 138.46 127.76 136.89 127.76 136.89 136.74"/>
    <path class="st3" d="M132.96,127.76h-1.85l-2.93,8.99h1.42l.62-1.96h3.59l.58,1.96h1.52l-2.95-8.99ZM130.54,133.74l1.5-4.85,1.46,4.85h-2.95Z"/>
    <path class="st3" d="M125.86,133.88v.67c0,.91-.61,1.35-1.42,1.35-.52,0-.89-.18-1.13-.46-.14-.17-.29-.37-.29-1.25v-4.1c0-.76.16-.98.41-1.17.23-.19.58-.33,1.04-.33.8,0,1.38.43,1.38,1.33v.38h1.5v-.27c0-1.6-1.03-2.47-2.89-2.47-1.44,0-2.29.53-2.68,1.23-.12.22-.26.59-.26,1.45v3.85c0,1.4.28,1.77.68,2.12.42.38,1.18.7,2.23.7.86,0,1.46-.19,1.9-.46.65-.39,1.02-.94,1.02-1.96v-.63h-1.5Z"/>
    <rect class="st6" x="118.43" y="127.76" width="1.56" height="8.99"/>
    <polygon class="st3" points="110.15 136.74 111.51 136.74 111.51 129.03 114.51 136.74 116.83 136.74 116.83 127.76 115.45 127.76 115.45 135.44 112.48 127.76 110.15 127.76 110.15 136.74"/>
    <path class="st3" d="M106.21,127.76h-1.84l-2.94,8.99h1.42l.62-1.96h3.6l.58,1.96h1.52l-2.95-8.99ZM103.79,133.74l1.5-4.85,1.45,4.85h-2.95Z"/>
    <polygon class="st3" points="94.34 136.74 95.85 136.74 95.85 132.66 98.95 132.66 98.95 136.74 100.45 136.74 100.45 127.76 98.95 127.76 98.95 131.6 95.84 131.6 95.84 127.76 94.34 127.76 94.34 136.74"/>
    <path class="st3" d="M91.32,133.88v.67c0,.91-.6,1.35-1.42,1.35-.51,0-.9-.18-1.13-.46-.14-.17-.29-.37-.29-1.25v-4.1c0-.76.17-.98.41-1.17.23-.19.58-.33,1.04-.33.79,0,1.37.43,1.37,1.33v.38h1.5v-.27c0-1.6-1.03-2.47-2.89-2.47-1.45,0-2.3.53-2.68,1.23-.12.22-.26.59-.26,1.45v3.85c0,1.4.28,1.77.68,2.12.43.38,1.18.7,2.23.7.86,0,1.46-.19,1.9-.46.65-.39,1.03-.94,1.03-1.96v-.63h-1.5Z"/>
    <polygon class="st3" points="80.44 136.74 85.54 136.74 85.54 135.7 81.94 135.7 81.94 132.72 85.18 132.72 85.18 131.66 81.93 131.66 81.93 128.81 85.36 128.81 85.36 127.76 80.44 127.76 80.44 136.74"/>
  </g>
  <g>
    <g>
      <path class="st3" d="M165.19,33.7l3.02-3.36-27.73,1.13,17.16,10.97,2.33-2.72c8.04,1.67,14.7,4.25,20.11,7.77,7.12,4.53,10.54,9.75,10.54,15.72,0,3.97-1.48,7.49-4.9,11.09-3.05,2.96-7.12,5.78-12.3,8.23-5.32,2.03-10.86,3.88-17.38,4.99-7.12,1.34-14.24,1.94-21.5,1.94-3.37,0-6.56,0-9.94-.23,4.07.32,8.6.56,12.9.56,8.23,0,16.27-.79,23.95-2.26,7.21-1.25,13.78-3.38,19.55-5.55,5.96-2.68,10.49-5.87,13.87-9.15,3.97-3.93,5.55-8.23,5.55-12.53,0-6.56-3.84-12.57-11.84-17.43-6.01-4.07-13.91-7.26-23.39-9.15"/>
      <path class="st2" d="M189.3,41.79c-5.78-3.91-13.24-6.97-21.67-8.88l3.57-3.98-34.85,1.42,21.54,13.77,2.56-2.99c7.46,1.62,13.83,4.12,18.94,7.44,6.69,4.26,9.95,9.05,9.95,14.63,0,3.75-1.4,6.9-4.51,10.17-3.11,3.01-7.12,5.7-11.91,7.97-4.67,1.78-10.34,3.76-17.11,4.91-6.86,1.29-13.81,1.92-21.26,1.92-3.35,0-28.22-.25-28.22-.25,0,0,12.31,3.14,31.18,3.14,8.17,0,16.31-.77,24.17-2.29,6.15-1.06,12.44-2.85,19.79-5.61l.07-.03c5.64-2.54,10.43-5.7,14.25-9.41,3.93-3.89,5.93-8.41,5.93-13.44,0-7.18-4.31-13.58-12.4-18.49ZM194.87,72.81c-3.38,3.28-7.91,6.47-13.87,9.15-5.78,2.17-12.34,4.3-19.55,5.55-7.67,1.48-15.72,2.26-23.95,2.26-4.3,0-8.83-.23-12.9-.56,3.37.23,6.56.23,9.94.23,7.26,0,14.38-.6,21.5-1.94,6.52-1.11,12.06-2.96,17.38-4.99,5.18-2.45,9.25-5.27,12.3-8.23,3.42-3.61,4.9-7.12,4.9-11.09,0-5.96-3.42-11.19-10.54-15.72-5.41-3.51-12.06-6.1-20.11-7.77l-2.33,2.72-17.16-10.97,27.73-1.13-3.02,3.36c9.48,1.9,17.38,5.09,23.39,9.15,8,4.85,11.84,10.86,11.84,17.43,0,4.3-1.57,8.6-5.55,12.53Z"/>
      <path class="st2" d="M118.08,71.5l1.94-2.37-1.88-.54c-16.18-4.62-26.18-11.71-25.48-18.06.68-6.21,11.58-10.23,27.78-10.23,5.19,0,10.66.41,16.24,1.22,1.43.21,2.92.46,4.45.74l.74.14,4.57-5.6-1.09-.7-4,4.89c-1.53-.28-3.04-.53-4.49-.74-5.64-.82-11.17-1.24-16.42-1.24-17.15,0-28.29,4.36-29.05,11.37-.78,7.14,9.32,14.56,26.41,19.44l-.22.27c-18.01-3.42-30.08-11.18-30.08-19.37,0-5.39,5.04-10.59,14.19-14.62,9.62-4.24,22.43-6.58,36.1-6.58,3.05,0,6.07.16,9.06.4l5.41-.22.43-.53-2.35-.26c-4.09-.45-8.31-.68-12.55-.68-13.84,0-26.84,2.38-36.62,6.69-9.65,4.26-14.96,9.87-14.96,15.8,0,8.95,12.22,17.05,31.13,20.64l.75.14Z"/>
      <path class="st1" d="M117.79,69.83c-17.09-4.88-27.19-12.3-26.41-19.44.77-7.02,11.9-11.37,29.05-11.37,5.26,0,10.78.42,16.42,1.24,1.45.21,2.96.46,4.49.74l4-4.89-9.01-5.76,10.5-.43c-2.99-.24-6.01-.4-9.06-.4-13.66,0-26.48,2.34-36.1,6.58-9.15,4.04-14.19,9.23-14.19,14.62,0,8.19,12.07,15.96,30.08,19.37l.22-.27Z"/>
      <path class="st2" d="M154.68,42.9l-1.45,2.14c14.87,4.08,24.78,11.74,24.11,17.78-.68,6.21-11.58,10.22-27.78,10.22-5.19,0-10.66-.41-16.24-1.22-1.45-.21-2.96-.46-4.49-.74l-.76-.14-4.39,5.54,1.17.6,3.75-4.74c1.54.28,3.07.54,4.54.75,5.64.82,11.17,1.24,16.42,1.24,17.15,0,28.29-4.36,29.05-11.37.74-6.81-8.31-13.82-23.87-18.68,17.32,3.39,29.1,11.13,29.1,19.38,0,5.4-4.87,10.6-13.72,14.63-9.29,4.24-21.68,6.57-34.89,6.57-5.36,0-10.61-.38-15.63-1.15l.23-.29-1.75.15-.85,1.08,2.19.33c5.08.77,10.41,1.16,15.82,1.16,13.39,0,25.97-2.37,35.42-6.68,9.34-4.26,14.47-9.87,14.47-15.8,0-8.95-12.14-17.17-30.45-20.76Z"/>
      <path class="st4" d="M154.74,44.28c15.56,4.86,24.62,11.87,23.87,18.68-.77,7.01-11.9,11.37-29.05,11.37-5.25,0-10.78-.42-16.42-1.24-1.47-.21-3-.47-4.54-.75l-3.75,4.74,9.91,5.07-14.93,1.28-.23.29c5.02.76,10.27,1.15,15.63,1.15,13.21,0,25.6-2.33,34.89-6.57,8.85-4.03,13.72-9.23,13.72-14.63,0-8.25-11.79-15.99-29.1-19.38Z"/>
      <path class="st3" d="M103.06,80.07l-3.42,3.8,30.55-2.61-19.18-9.82-2.54,2.85c-7.45-1.94-13.78-4.3-18.86-7.58-6.89-4.39-10.54-9.48-10.54-15.26,0-3.74,1.71-7.49,4.86-10.86,2.87-2.96,7.12-5.64,12.02-8.04,5.27-2.27,10.82-3.7,17.15-4.85,6.57-1.34,13.45-2.03,21.03-2.03,3.14,0,6.33.14,9.24.37h.46c-4.3-.37-8.46-.6-12.76-.6-8.28,0-15.81.6-23.39,2.03-7.26,1.39-13.59,3.42-19.23,5.69-5.73,2.59-10.03,5.5-13.45,8.92-3.47,3.74-5.41,7.67-5.41,12.2,0,6.56,3.98,11.97,11.74,17.2,5.64,3.51,13.13,6.56,21.73,8.6"/>
      <path class="st2" d="M108.03,72.85c-7.62-2.04-13.27-4.34-17.74-7.22-6.6-4.21-9.95-8.98-9.95-14.17,0-3.37,1.56-6.82,4.49-9.97,2.52-2.6,6.44-5.22,11.63-7.77,4.72-2.03,9.92-3.49,16.87-4.76,6.62-1.35,13.41-2.01,20.78-2.01,2.97,0,25.29-.04,25.29-.04,0,0-24.37-2.77-28.34-2.77-8.7,0-16.21.65-23.63,2.06-6.59,1.26-12.96,3.14-19.52,5.78-5.7,2.57-10.23,5.58-13.87,9.22-3.87,4.18-5.75,8.46-5.75,13.08,0,6.81,3.91,12.61,12.35,18.29,5.48,3.41,12.36,6.24,20.02,8.24l-4.16,4.62,38.26-3.26-24.06-12.32-2.68,3ZM130.19,81.26l-30.55,2.61,3.42-3.8c-8.6-2.03-16.09-5.09-21.73-8.6-7.77-5.22-11.74-10.63-11.74-17.2,0-4.53,1.94-8.46,5.41-12.2,3.42-3.42,7.72-6.33,13.45-8.92,5.64-2.27,11.97-4.3,19.23-5.69,7.58-1.43,15.12-2.03,23.39-2.03,4.3,0,8.46.23,12.76.6h-.46c-2.91-.23-6.1-.37-9.24-.37-7.58,0-14.47.69-21.03,2.03-6.33,1.16-11.88,2.59-17.15,4.85-4.9,2.4-9.15,5.09-12.02,8.04-3.14,3.38-4.86,7.12-4.86,10.86,0,5.78,3.65,10.86,10.54,15.26,5.08,3.28,11.42,5.64,18.86,7.58l2.54-2.85,19.18,9.82Z"/>
    </g>
    <g>
      <path class="st0" d="M45.83,108.55c0-1.29.21-2.58.63-3.88.42-1.3,1.04-2.49,1.85-3.55.81-1.06,1.79-1.93,2.94-2.61,1.15-.67,2.45-1.01,3.91-1.01h29.57c.68,0,1.25.24,1.72.71.47.47.71,1.05.71,1.73s-.24,1.25-.71,1.72c-.47.47-1.05.71-1.72.71h-28.51c-1.18,0-2.14.21-2.87.63-.73.43-1.3.94-1.72,1.55-.42.61-.71,1.28-.86,2.01-.15.73-.23,1.39-.23,2s.07,1.28.23,2c.15.73.44,1.4.86,2.01.42.61,1,1.12,1.72,1.54.73.43,1.68.63,2.87.63h28.51c.68,0,1.25.24,1.72.71.47.47.71,1.05.71,1.73s-.24,1.25-.71,1.73c-.47.47-1.05.71-1.72.71h-30.08c-1.39,0-2.62-.34-3.7-1.01-1.08-.68-2-1.55-2.77-2.62-.76-1.06-1.34-2.25-1.75-3.57-.41-1.32-.61-2.6-.61-3.85"/>
      <path class="st0" d="M133.53,108.55c0,1.29-.21,2.58-.63,3.88-.42,1.3-1.04,2.49-1.85,3.55-.81,1.06-1.79,1.93-2.94,2.61-1.15.67-2.45,1.01-3.91,1.01h-23.13c-1.39-.07-2.62-.45-3.7-1.14-1.08-.69-2-1.56-2.77-2.61-.76-1.05-1.34-2.21-1.75-3.5-.41-1.29-.61-2.55-.61-3.8s.21-2.58.63-3.88c.42-1.3,1.04-2.48,1.85-3.55.81-1.06,1.79-1.93,2.94-2.61,1.15-.67,2.45-1.01,3.91-1.01h23.13c1.39.07,2.62.45,3.7,1.14,1.08.7,2,1.57,2.77,2.61.76,1.05,1.34,2.22,1.75,3.5.41,1.29.61,2.55.61,3.8M125.97,114.1c.74-.42,1.33-.94,1.75-1.54.42-.61.71-1.28.86-2.01.15-.73.23-1.39.23-2s-.07-1.28-.23-2c-.15-.73-.44-1.4-.86-2.01-.43-.61-1.01-1.12-1.75-1.55-.74-.42-1.69-.63-2.84-.63h-20.49c-1.19,0-2.14.21-2.87.63-.73.43-1.3.94-1.72,1.55-.42.61-.71,1.28-.86,2.01-.15.73-.23,1.39-.23,2s.08,1.28.23,2c.15.73.44,1.4.86,2.01.42.61,1,1.12,1.72,1.54.73.42,1.68.63,2.87.63h20.49c1.15,0,2.09-.21,2.84-.63"/>
      <path class="st0" d="M174.01,112.83c.94.66,1.91,1.38,2.89,2.16.37.27.69.59.96.94.27.35.41.77.41,1.24,0,.68-.24,1.25-.71,1.73-.47.47-1.05.71-1.73.71-.58,0-1.15-.24-1.72-.71-1.39-1.02-2.81-2-4.26-2.94-1.45-.94-2.97-1.79-4.54-2.53-1.57-.74-3.2-1.34-4.89-1.78-1.69-.44-3.45-.66-5.27-.66h-10.09c-.44.07-.81.27-1.12.61-.3.34-.45.76-.45,1.27v4.31c0,.68-.25,1.25-.74,1.73-.49.47-1.06.71-1.7.71-.68,0-1.25-.24-1.73-.71-.47-.47-.71-1.05-.71-1.73v-4.87c0-.85.16-1.65.48-2.41.32-.76.75-1.42,1.29-1.98.54-.56,1.18-1,1.93-1.32.75-.32,1.55-.48,2.43-.48h26.88c.51,0,.95-.18,1.34-.53.39-.35.58-.8.58-1.34,0-.51-.19-.94-.58-1.32-.39-.37-.83-.56-1.34-.56h-30.58c-.68,0-1.25-.24-1.73-.71-.47-.47-.71-1.05-.71-1.72s.24-1.25.71-1.73c.47-.47,1.05-.71,1.73-.71h30.38c.95,0,1.83.18,2.66.53.83.35,1.56.84,2.18,1.45.62.61,1.12,1.32,1.47,2.13.35.81.53,1.7.53,2.64s-.18,1.83-.53,2.64-.85,1.52-1.47,2.13c-.63.61-1.35,1.09-2.18,1.45-.83.35-1.71.53-2.66.53h-.2c.91.57,1.84,1.19,2.79,1.85"/>
      <path class="st0" d="M193.78,102.36c-1.18,0-2.14.21-2.86.63-.73.43-1.3.94-1.73,1.55-.42.61-.71,1.28-.86,2.01-.15.73-.23,1.39-.23,2s.08,1.28.23,2c.15.73.44,1.4.86,2.01.42.61,1,1.12,1.73,1.54.73.43,1.68.63,2.86.63h27.95c.68,0,1.25.24,1.73.71.47.47.71,1.05.71,1.73s-.24,1.25-.71,1.73-1.05.71-1.73.71h-29.57c-1.38,0-2.62-.34-3.7-1.01-1.08-.68-2-1.55-2.77-2.62-.76-1.06-1.34-2.25-1.75-3.57-.41-1.32-.61-2.6-.61-3.85s.21-2.58.63-3.88c.42-1.3,1.04-2.49,1.85-3.55.81-1.06,1.79-1.93,2.94-2.61,1.15-.67,2.45-1.01,3.91-1.01h29.06c.68,0,1.25.24,1.73.71s.71,1.05.71,1.73-.24,1.25-.71,1.72c-.47.47-1.05.71-1.73.71h-27.95ZM221.33,106.82c.47.47.71,1.05.71,1.73s-.24,1.25-.71,1.73c-.47.47-1.05.71-1.72.71h-25.26c-.68,0-1.25-.23-1.73-.71-.47-.47-.71-1.05-.71-1.73s.24-1.25.71-1.73c.47-.47,1.05-.71,1.73-.71h25.26c.67,0,1.25.24,1.72.71"/>
      <path class="st5" d="M84.73,113.45h-28.51c-.95,0-1.7-.15-2.22-.46-.56-.33-1-.72-1.32-1.17-.33-.47-.54-.97-.66-1.54-.13-.64-.2-1.22-.2-1.74s.07-1.11.2-1.74c.12-.57.33-1.07.66-1.54.32-.46.75-.84,1.32-1.17.52-.31,1.27-.46,2.22-.46h28.51c1.01,0,1.92-.38,2.63-1.08.71-.71,1.09-1.62,1.09-2.63s-.38-1.92-1.09-2.63c-.71-.71-1.62-1.09-2.63-1.09h-29.57c-1.68,0-3.21.4-4.56,1.19-1.29.76-2.4,1.75-3.31,2.94-.89,1.17-1.59,2.5-2.05,3.93-.46,1.42-.7,2.86-.7,4.28s.22,2.8.67,4.23c.44,1.44,1.09,2.77,1.93,3.94.86,1.2,1.91,2.19,3.13,2.96,1.28.8,2.76,1.21,4.38,1.21h30.08c1.01,0,1.92-.38,2.63-1.08.71-.71,1.09-1.62,1.09-2.63s-.38-1.92-1.09-2.63c-.71-.71-1.62-1.09-2.63-1.09ZM86.46,118.9c-.47.47-1.05.71-1.72.71h-30.08c-1.39,0-2.62-.34-3.7-1.01-1.08-.68-2-1.55-2.77-2.62-.76-1.06-1.34-2.25-1.75-3.57-.41-1.32-.61-2.6-.61-3.85s.21-2.58.63-3.88c.42-1.3,1.04-2.49,1.85-3.55.81-1.06,1.79-1.93,2.94-2.61,1.15-.67,2.45-1.01,3.91-1.01h29.57c.68,0,1.25.24,1.72.71.47.47.71,1.05.71,1.73s-.24,1.25-.71,1.72c-.47.47-1.05.71-1.72.71h-28.51c-1.18,0-2.14.21-2.87.63-.73.43-1.3.94-1.72,1.55-.42.61-.71,1.28-.86,2.01-.15.73-.23,1.39-.23,2s.07,1.28.23,2c.15.73.44,1.4.86,2.01.42.61,1,1.12,1.72,1.54.73.43,1.68.63,2.87.63h28.51c.68,0,1.25.24,1.72.71.47.47.71,1.05.71,1.73s-.24,1.25-.71,1.73Z"/>
      <g>
        <path class="st5" d="M127.72,104.54c-.43-.61-1.01-1.12-1.75-1.55-.74-.42-1.69-.63-2.84-.63h-20.49c-1.19,0-2.14.21-2.87.63-.73.43-1.3.94-1.72,1.55-.42.61-.71,1.28-.86,2.01-.15.73-.23,1.39-.23,2s.08,1.28.23,2c.15.73.44,1.4.86,2.01.42.61,1,1.12,1.72,1.54.73.42,1.68.63,2.87.63h20.49c1.15,0,2.09-.21,2.84-.63.74-.42,1.33-.94,1.75-1.54.42-.61.71-1.28.86-2.01.15-.73.23-1.39.23-2s-.07-1.28-.23-2c-.15-.73-.44-1.4-.86-2.01ZM127.33,110.29c-.12.56-.33,1.06-.66,1.54-.31.45-.76.84-1.33,1.16-.55.31-1.29.47-2.21.47h-20.49c-.95,0-1.7-.16-2.22-.46-.56-.33-1-.72-1.31-1.17-.33-.47-.54-.97-.66-1.54-.13-.64-.2-1.22-.2-1.74s.07-1.11.2-1.74c.12-.57.33-1.07.66-1.54.32-.46.75-.84,1.31-1.17.53-.31,1.27-.46,2.22-.46h20.49c.92,0,1.66.16,2.2.46.57.33,1.02.72,1.33,1.17.33.47.55.97.66,1.53.13.64.2,1.23.2,1.74s-.07,1.1-.2,1.74Z"/>
        <path class="st5" d="M134.14,104.36c-.44-1.41-1.09-2.71-1.93-3.87-.85-1.17-1.9-2.16-3.11-2.94-1.27-.81-2.73-1.26-4.4-1.34h-23.13c-1.68,0-3.21.4-4.56,1.19-1.29.76-2.4,1.75-3.31,2.94-.9,1.17-1.59,2.5-2.05,3.93-.46,1.42-.7,2.86-.7,4.28s.23,2.79.67,4.19c.44,1.41,1.09,2.71,1.93,3.87.85,1.18,1.9,2.17,3.11,2.94,1.27.81,2.73,1.26,4.39,1.34h23.13c1.68,0,3.21-.4,4.56-1.19,1.29-.76,2.4-1.75,3.31-2.94.89-1.17,1.58-2.5,2.05-3.93.46-1.43.7-2.87.7-4.28s-.22-2.79-.67-4.19ZM132.9,112.42c-.42,1.3-1.04,2.49-1.85,3.55-.81,1.06-1.79,1.93-2.94,2.61-1.15.67-2.45,1.01-3.91,1.01h-23.13c-1.39-.07-2.62-.45-3.7-1.14-1.08-.69-2-1.56-2.77-2.61-.76-1.05-1.34-2.21-1.75-3.5-.41-1.29-.61-2.55-.61-3.8s.21-2.58.63-3.88c.42-1.3,1.04-2.48,1.85-3.55.81-1.06,1.79-1.93,2.94-2.61,1.15-.67,2.45-1.01,3.91-1.01h23.13c1.39.07,2.62.45,3.7,1.14,1.08.7,2,1.57,2.77,2.61.76,1.05,1.34,2.22,1.75,3.5.41,1.29.61,2.55.61,3.8s-.21,2.58-.63,3.88Z"/>
      </g>
      <path class="st5" d="M177.69,113.98c-1-.79-2-1.53-2.95-2.2-.07-.04-.13-.09-.19-.13.01,0,.02,0,.04-.01.97-.42,1.83-.99,2.57-1.71.74-.73,1.33-1.58,1.75-2.54.42-.97.64-2.03.64-3.15s-.21-2.18-.64-3.15c-.42-.96-1.01-1.81-1.75-2.54-.74-.72-1.6-1.29-2.57-1.71-.99-.42-2.05-.64-3.16-.64h-30.38c-1.01,0-1.92.38-2.63,1.09-.71.71-1.09,1.62-1.09,2.63s.37,1.92,1.09,2.63c.71.71,1.62,1.09,2.63,1.09h30.58c.13,0,.27.02.45.2.16.15.19.26.19.39,0,.21-.06.3-.16.4-.15.14-.29.2-.48.2h-26.88c-1.05,0-2.04.2-2.94.59-.9.38-1.68.93-2.34,1.6-.65.67-1.17,1.47-1.55,2.37-.39.92-.58,1.89-.58,2.91v4.87c0,1.01.37,1.92,1.09,2.63.71.71,1.62,1.08,2.63,1.08s1.87-.37,2.59-1.07c.74-.71,1.13-1.63,1.13-2.65v-4.31c0-.24.06-.34.13-.41.09-.1.17-.15.29-.18h9.97c1.71,0,3.37.21,4.95.62,1.6.42,3.17.99,4.67,1.69,1.51.71,2.99,1.54,4.39,2.45,1.42.93,2.82,1.9,4.17,2.88.8.65,1.64.98,2.51.98,1.01,0,1.92-.38,2.63-1.08.71-.71,1.08-1.62,1.08-2.63,0-.76-.22-1.44-.67-2.02-.34-.45-.76-.85-1.19-1.17ZM177.56,118.9c-.47.47-1.05.71-1.73.71-.58,0-1.15-.24-1.72-.71-1.39-1.02-2.81-2-4.26-2.94-1.45-.94-2.97-1.79-4.54-2.53-1.57-.74-3.2-1.34-4.89-1.78-1.69-.44-3.45-.66-5.27-.66h-10.09c-.44.07-.81.27-1.12.61-.3.34-.45.76-.45,1.27v4.31c0,.68-.25,1.25-.74,1.73-.49.47-1.06.71-1.7.71-.68,0-1.25-.24-1.73-.71-.47-.47-.71-1.05-.71-1.73v-4.87c0-.85.16-1.65.48-2.41.32-.76.75-1.42,1.29-1.98.54-.56,1.18-1,1.93-1.32.75-.32,1.55-.48,2.43-.48h26.88c.51,0,.95-.18,1.34-.53.39-.35.58-.8.58-1.34,0-.51-.19-.94-.58-1.32-.39-.37-.83-.56-1.34-.56h-30.58c-.68,0-1.25-.24-1.73-.71-.47-.47-.71-1.05-.71-1.72s.24-1.25.71-1.73c.47-.47,1.05-.71,1.73-.71h30.38c.95,0,1.83.18,2.66.53.83.35,1.56.84,2.18,1.45.62.61,1.12,1.32,1.47,2.13.35.81.53,1.7.53,2.64s-.18,1.83-.53,2.64-.85,1.52-1.47,2.13c-.63.61-1.35,1.09-2.18,1.45-.83.35-1.71.53-2.66.53h-.2c.91.57,1.84,1.19,2.79,1.85.94.66,1.91,1.38,2.89,2.16.37.27.69.59.96.94.27.35.41.77.41,1.24,0,.68-.24,1.25-.71,1.73Z"/>
      <g>
        <path class="st5" d="M221.73,113.45h-27.95c-.95,0-1.69-.16-2.22-.46-.57-.33-1-.71-1.31-1.17-.33-.47-.54-.97-.66-1.54-.13-.64-.2-1.22-.2-1.74s.07-1.11.2-1.74c.12-.57.33-1.07.66-1.54.32-.46.75-.84,1.31-1.17.53-.31,1.27-.46,2.22-.46h27.95c1.01,0,1.92-.38,2.63-1.09.71-.71,1.09-1.62,1.09-2.63s-.38-1.92-1.09-2.63c-.71-.71-1.62-1.09-2.63-1.09h-29.06c-1.68,0-3.21.4-4.56,1.19-1.29.76-2.4,1.75-3.31,2.94-.9,1.17-1.59,2.5-2.05,3.93-.46,1.42-.7,2.86-.7,4.28s.22,2.8.67,4.23c.45,1.44,1.1,2.77,1.93,3.94.86,1.2,1.91,2.19,3.13,2.96,1.29.8,2.76,1.21,4.38,1.21h29.57c1.01,0,1.92-.37,2.63-1.08.71-.71,1.09-1.62,1.09-2.63s-.38-1.92-1.09-2.63c-.71-.71-1.62-1.08-2.63-1.08ZM223.46,118.9c-.47.47-1.05.71-1.73.71h-29.57c-1.38,0-2.62-.34-3.7-1.01-1.08-.68-2-1.55-2.77-2.62-.76-1.06-1.34-2.25-1.75-3.57-.41-1.32-.61-2.6-.61-3.85s.21-2.58.63-3.88c.42-1.3,1.04-2.49,1.85-3.55.81-1.06,1.79-1.93,2.94-2.61,1.15-.67,2.45-1.01,3.91-1.01h29.06c.68,0,1.25.24,1.73.71s.71,1.05.71,1.73-.24,1.25-.71,1.72c-.47.47-1.05.71-1.73.71h-27.95c-1.18,0-2.14.21-2.86.63-.73.43-1.3.94-1.73,1.55-.42.61-.71,1.28-.86,2.01-.15.73-.23,1.39-.23,2s.08,1.28.23,2c.15.73.44,1.4.86,2.01.42.61,1,1.12,1.73,1.54.73.43,1.68.63,2.86.63h27.95c.68,0,1.25.24,1.73.71.47.47.71,1.05.71,1.73s-.24,1.25-.71,1.73Z"/>
        <path class="st5" d="M194.34,104.83c-1.01,0-1.92.38-2.63,1.09-.71.71-1.09,1.62-1.09,2.63s.38,1.92,1.09,2.63c.71.71,1.62,1.09,2.63,1.09h25.26c1.01,0,1.92-.38,2.63-1.09.71-.71,1.09-1.62,1.09-2.63s-.38-1.92-1.09-2.63c-.71-.71-1.62-1.09-2.63-1.09h-25.26ZM222.04,108.55c0,.68-.24,1.25-.71,1.73-.47.47-1.05.71-1.72.71h-25.26c-.68,0-1.25-.23-1.73-.71-.47-.47-.71-1.05-.71-1.73s.24-1.25.71-1.73c.47-.47,1.05-.71,1.73-.71h25.26c.67,0,1.25.24,1.72.71.47.47.71,1.05.71,1.73Z"/>
      </g>
    </g>
  </g>
</svg>